<?xml version='1.0' encoding='UTF-8'?>
<svg xmlns="http://www.w3.org/2000/svg" style="enable-background:new 0 0 606.218 700;" viewBox="0 0 606.218 700" x="0px" y="0px" xml:space="preserve"> <g id="VuMark-ClearSpace"> <polygon points="0,175 0,525 303.109,700 606.218,525 606.218,175 303.109,0 " style="fill:#FFFFFF;" /> </g> <g id="VuMark-Border"> <polygon points="303.109,117.521 225.553,72.322 23.923,188.812 23.923,511.188 303.109,672.376 582.294,511.188 582.294,188.812 380.479,72.294 " /> </g> <g id="VuMark-Background"> <polygon points="251.419,141.326 277.231,126.424 277.231,156.229 " style="fill:#FFFFFF;" /> <polygon points="303.043,141.326 277.231,156.229 277.231,126.424 " style="fill:#FFFFFF;" /> <polygon points="354.667,141.326 328.855,126.424 328.855,156.229 " style="fill:#FFFFFF;" /> <polygon points="303.043,141.326 328.855,156.229 328.855,126.424 " style="fill:#FFFFFF;" /> <polygon points="277.231,126.424 251.419,141.326 251.419,111.521 " style="fill:#FFFFFF;" /> <polygon points="277.231,156.229 251.419,171.131 251.419,141.326 " style="fill:#FFFFFF;" /> <polygon points="328.855,126.424 354.667,141.326 354.667,111.521 " style="fill:#FFFFFF;" /> <polygon points="328.855,156.229 354.667,171.131 354.667,141.326 " style="fill:#FFFFFF;" /> </g> <g id="VuMark-DarkElements"> <polygon id="d0006" points="148.171,558.61 173.983,573.513 173.983,543.708 " /> <polygon id="d0011" points="173.983,543.708 199.795,558.61 199.795,528.805 " /> <polygon id="d0012" points="225.607,573.513 199.795,558.61 199.795,588.415 " /> <polygon id="d0014" points="199.795,588.415 225.607,603.318 225.607,573.513 " /> <polygon id="d0016" points="251.419,588.415 225.607,573.513 225.607,603.318 " /> <polygon id="d0017" points="225.607,573.513 251.419,588.415 251.419,558.61 " /> <polygon id="d0018" points="225.607,603.318 251.419,618.22 251.419,588.415 " /> <polygon id="d0019" points="277.231,603.318 251.419,588.415 251.419,618.22 " /> <polygon id="d0022" points="251.419,588.415 277.231,603.318 277.231,573.513 " /> <polygon id="d0026" points="277.231,633.123 303.043,648.026 303.043,618.22 " /> <polygon id="d0028" points="199.795,558.61 225.607,573.513 225.607,543.708 " /> <polygon id="d0029" points="199.795,528.805 225.607,543.708 225.607,513.903 " /> <polygon id="d0030" points="251.419,528.805 225.607,513.903 225.607,543.708 " /> <polygon id="d0032" points="277.231,543.708 251.419,528.805 251.419,558.61 " /> <polygon id="d0034" points="303.043,558.61 277.231,543.708 277.231,573.513 " /> <polygon id="d0035" points="70.735,484.097 44.923,469.195 44.923,499 " /> <polygon id="d0036" points="44.923,469.195 70.735,454.292 70.735,484.097 " /> <polygon id="d0037" points="44.923,499 70.735,513.903 70.735,484.097 " /> <polygon id="d0040" points="70.735,484.097 96.547,469.195 96.547,499 " /> <polygon id="d0041" points="70.735,454.292 96.547,439.39 96.547,469.195 " /> <polygon id="d0042" points="70.735,424.487 44.923,409.585 44.923,439.39 " /> <polygon id="d0044" points="70.735,454.292 44.923,439.39 44.923,469.195 " /> <polygon id="d0045" points="44.923,439.39 70.735,424.487 70.735,454.292 " /> <polygon id="d0046" points="44.923,409.585 70.735,394.682 70.735,424.487 " /> <polygon id="d0047" points="96.547,439.39 70.735,424.487 70.735,454.292 " /> <polygon id="d0048" points="96.547,409.585 70.735,394.682 70.735,424.487 " /> <polygon id="d0050" points="122.359,454.292 96.547,439.39 96.547,469.195 " /> <polygon id="d0052" points="96.547,469.195 122.359,454.292 122.359,484.097 " /> <polygon id="d0055" points="122.359,513.903 148.171,528.805 148.171,499 " /> <polygon id="d0056" points="122.359,484.097 148.171,499 148.171,469.195 " /> <polygon id="d0058" points="173.983,484.097 148.171,469.195 148.171,499 " /> <polygon id="d0059" points="148.171,499 173.983,513.903 173.983,484.097 " /> <polygon id="d0061" points="173.983,513.903 199.795,528.805 199.795,499 " /> <polygon id="d0063" points="70.735,424.487 96.547,409.585 96.547,439.39 " /> <polygon id="d0064" points="70.735,394.682 96.547,379.78 96.547,409.585 " /> <polygon id="d0065" points="122.359,394.682 96.547,379.78 96.547,409.585 " /> <polygon id="d0066" points="122.359,424.487 96.547,409.585 96.547,439.39 " /> <polygon id="d0067" points="96.547,439.39 122.359,424.487 122.359,454.292 " /> <polygon id="d0070" points="328.855,603.318 303.043,588.415 303.043,618.22 " /> <polygon id="d0071" points="328.855,633.123 303.043,618.22 303.043,648.026 " /> <polygon id="d0073" points="303.043,588.415 328.855,573.513 328.855,603.318 " /> <polygon id="d0075" points="354.667,618.22 328.855,633.123 328.855,603.318 " /> <polygon id="d0080" points="328.855,543.708 354.667,528.805 354.667,558.61 " /> <polygon id="d0081" points="328.855,573.513 354.667,558.61 354.667,588.415 " /> <polygon id="d0082" points="380.479,543.708 354.667,558.61 354.667,528.805 " /> <polygon id="d0084" points="380.479,603.318 354.667,618.22 354.667,588.415 " /> <polygon id="d0088" points="406.291,558.61 380.479,573.513 380.479,543.708 " /> <polygon id="d0090" points="406.291,588.415 380.479,603.318 380.479,573.513 " /> <polygon id="d0094" points="432.103,543.708 406.291,558.61 406.291,528.805 " /> <polygon id="d0096" points="406.291,528.805 432.103,513.903 432.103,543.708 " /> <polygon id="d0097" points="457.915,528.805 432.103,543.708 432.103,513.903 " /> <polygon id="d0099" points="432.103,543.708 457.915,528.805 457.915,558.61 " /> <polygon id="d0106" points="432.103,513.903 406.291,528.805 406.291,499 " /> <polygon id="d0107" points="406.291,499 432.103,484.097 432.103,513.903 " /> <polygon id="d0109" points="483.727,513.903 457.915,528.805 457.915,499 " /> <polygon id="d0111" points="509.539,499 483.727,513.903 483.727,484.097 " /> <polygon id="d0116" points="509.539,439.39 483.727,424.487 483.727,454.292 " /> <polygon id="d0117" points="509.539,409.585 483.727,394.682 483.727,424.487 " /> <polygon id="d0118" points="509.539,469.195 483.727,454.292 483.727,484.097 " /> <polygon id="d0121" points="509.539,469.195 535.351,454.292 535.351,484.097 " /> <polygon id="d0124" points="561.163,469.195 535.351,454.292 535.351,484.097 " /> <polygon id="d0126" points="483.727,454.292 509.539,439.39 509.539,469.195 " /> <polygon id="d0127" points="535.351,454.292 509.539,439.39 509.539,469.195 " /> <polygon id="d0128" points="535.351,424.487 509.539,409.585 509.539,439.39 " /> <polygon id="d0130" points="561.163,439.39 535.351,424.487 535.351,454.292 " /> <polygon id="d0131" points="535.351,454.292 561.163,439.39 561.163,469.195 " /> <polygon id="d0132" points="535.351,424.487 561.163,409.585 561.163,439.39 " /> <polygon id="d0133" points="483.727,424.487 509.539,409.585 509.539,439.39 " /> <polygon id="d0136" points="509.539,409.585 535.351,394.682 535.351,424.487 " /> <polygon id="d0138" points="561.163,379.78 535.351,364.877 535.351,394.682 " /> <polygon id="d0141" points="70.735,364.877 44.923,349.974 44.923,379.78 " /> <polygon id="d0142" points="44.923,379.78 70.735,364.877 70.735,394.682 " /> <polygon id="d0145" points="96.547,320.157 70.735,305.254 70.735,335.06 " /> <polygon id="d0146" points="96.547,349.962 70.735,335.06 70.735,364.865 " /> <polygon id="d0148" points="70.735,364.877 96.547,349.974 96.547,379.78 " /> <polygon id="d0149" points="70.735,335.06 96.547,320.157 96.547,349.962 " /> <polygon id="d0150" points="122.359,364.877 96.547,349.974 96.547,379.78 " /> <polygon id="d0152" points="96.547,349.974 122.359,335.072 122.359,364.877 " /> <polygon id="d0153" points="96.547,320.157 122.359,305.254 122.359,335.06 " /> <polygon id="d0155" points="70.735,305.254 44.923,290.352 44.923,320.157 " /> <polygon id="d0157" points="96.547,290.352 70.735,275.449 70.735,305.254 " /> <polygon id="d0160" points="122.359,305.254 96.547,290.352 96.547,320.157 " /> <polygon id="d0162" points="44.923,260.547 70.735,245.644 70.735,275.449 " /> <polygon id="d0169" points="96.547,230.742 122.359,215.839 122.359,245.644 " /> <polygon id="d0171" points="96.547,260.547 122.359,245.644 122.359,275.449 " /> <polygon id="d0172" points="148.171,230.742 122.359,245.644 122.359,215.839 " /> <polygon id="d0173" points="122.359,215.839 148.171,200.937 148.171,230.742 " /> <polygon id="d0178" points="70.735,215.839 96.547,200.937 96.547,230.742 " /> <polygon id="d0179" points="70.735,186.034 96.547,171.131 96.547,200.937 " /> <polygon id="d0180" points="122.359,215.839 96.547,230.742 96.547,200.937 " /> <polygon id="d0181" points="122.359,186.034 96.547,200.937 96.547,171.131 " /> <polygon id="d0182" points="96.547,200.937 122.359,186.034 122.359,215.839 " /> <polygon id="d0183" points="96.547,171.131 122.359,156.229 122.359,186.034 " /> <polygon id="d0184" points="148.171,200.937 122.359,215.839 122.359,186.034 " /> <polygon id="d0186" points="122.359,186.034 148.171,171.131 148.171,200.937 " /> <polygon id="d0189" points="173.983,156.229 148.171,171.131 148.171,141.326 " /> <polygon id="d0191" points="148.171,141.326 173.983,126.424 173.983,156.229 " /> <polygon id="d0193" points="199.795,171.131 173.983,186.034 173.983,156.229 " /> <polygon id="d0194" points="199.795,200.937 173.983,215.839 173.983,186.034 " /> <polygon id="d0197" points="225.607,156.229 199.795,171.131 199.795,141.326 " /> <polygon id="d0199" points="199.795,141.326 225.607,126.424 225.607,156.229 " /> <polygon id="d0204" points="173.983,126.424 199.795,111.521 199.795,141.326 " /> <polygon id="d0205" points="225.607,126.424 199.795,141.326 199.795,111.521 " /> <polygon id="d0206" points="199.795,111.521 225.607,96.619 225.607,126.424 " /> <polygon id="d0213" points="483.727,364.877 509.539,349.974 509.539,379.78 " /> <polygon id="d0214" points="483.727,335.06 509.539,320.157 509.539,349.962 " /> <polygon id="d0218" points="509.539,349.962 535.351,335.06 535.351,364.865 " /> <polygon id="d0219" points="509.539,320.157 535.351,305.254 535.351,335.06 " /> <polygon id="d0220" points="561.163,349.974 535.351,335.072 535.351,364.877 " /> <polygon id="d0225" points="483.727,305.254 509.539,290.352 509.539,320.157 " /> <polygon id="d0228" points="535.351,305.254 509.539,290.352 509.539,320.157 " /> <polygon id="d0230" points="509.539,260.547 535.351,245.644 535.351,275.449 " /> <polygon id="d0231" points="432.103,215.839 457.915,230.742 457.915,200.937 " /> <polygon id="d0232" points="483.727,215.839 457.915,200.937 457.915,230.742 " /> <polygon id="d0233" points="457.915,230.742 483.727,245.644 483.727,215.839 " /> <polygon id="d0239" points="561.163,290.352 535.351,275.449 535.351,305.254 " /> <polygon id="d0241" points="561.163,230.742 535.351,215.839 535.351,245.644 " /> <polygon id="d0242" points="535.351,305.254 561.163,290.352 561.163,320.157 " /> <polygon id="d0243" points="535.351,275.449 561.163,260.547 561.163,290.352 " /> <polygon id="d0245" points="380.479,156.229 354.667,141.326 354.667,171.131 " /> <polygon id="d0249" points="380.479,156.229 406.291,171.131 406.291,141.326 " /> <polygon id="d0252" points="380.479,126.424 354.667,111.521 354.667,141.326 " /> <polygon id="d0253" points="354.667,141.326 380.479,156.229 380.479,126.424 " /> <polygon id="d0254" points="354.667,111.521 380.479,126.424 380.479,96.619 " /> <polygon id="d0262" points="457.915,200.937 432.103,186.034 432.103,215.839 " /> <polygon id="d0263" points="457.915,171.131 432.103,156.229 432.103,186.034 " /> <polygon id="d0264" points="457.915,141.326 432.103,126.424 432.103,156.229 " /> <polygon id="d0265" points="432.103,186.034 457.915,200.937 457.915,171.131 " /> <polygon id="d0266" points="432.103,156.229 457.915,171.131 457.915,141.326 " /> <polygon id="d0269" points="457.915,200.937 483.727,215.839 483.727,186.034 " /> <polygon id="d0271" points="509.539,200.937 483.727,186.034 483.727,215.839 " /> <polygon id="d0272" points="509.539,171.131 483.727,156.229 483.727,186.034 " /> <polygon id="d0273" points="483.727,215.839 509.539,230.742 509.539,200.937 " /> <polygon id="d0275" points="535.351,215.839 509.539,200.937 509.539,230.742 " /> <polygon id="d0279" points="535.351,215.839 561.163,200.937 561.163,230.742 " /> </g> <g id="VuMark-BrightElements"> <polygon id="b0000" points="70.735,513.903 96.547,528.805 96.547,499 " style="fill:#FFFFFF;" /> <polygon id="b0001" points="122.359,513.903 96.547,499 96.547,528.805 " style="fill:#FFFFFF;" /> <polygon id="b0002" points="96.547,528.805 122.359,543.708 122.359,513.903 " style="fill:#FFFFFF;" /> <polygon id="b0003" points="148.171,528.805 122.359,513.903 122.359,543.708 " style="fill:#FFFFFF;" /> <polygon id="b0004" points="122.359,543.708 148.171,558.61 148.171,528.805 " style="fill:#FFFFFF;" /> <polygon id="b0005" points="173.983,543.708 148.171,528.805 148.171,558.61 " style="fill:#FFFFFF;" /> <polygon id="b0007" points="148.171,528.805 173.983,543.708 173.983,513.903 " style="fill:#FFFFFF;" /> <polygon id="b0008" points="199.795,558.61 173.983,543.708 173.983,573.513 " style="fill:#FFFFFF;" /> <polygon id="b0009" points="199.795,528.805 173.983,513.903 173.983,543.708 " style="fill:#FFFFFF;" /> <polygon id="b0010" points="173.983,573.513 199.795,588.415 199.795,558.61 " style="fill:#FFFFFF;" /> <polygon id="b0013" points="225.607,543.708 199.795,528.805 199.795,558.61 " style="fill:#FFFFFF;" /> <polygon id="b0015" points="251.419,558.61 225.607,543.708 225.607,573.513 " style="fill:#FFFFFF;" /> <polygon id="b0020" points="277.231,573.513 251.419,558.61 251.419,588.415 " style="fill:#FFFFFF;" /> <polygon id="b0021" points="251.419,618.22 277.231,633.123 277.231,603.318 " style="fill:#FFFFFF;" /> <polygon id="b0023" points="303.043,618.22 277.231,603.318 277.231,633.123 " style="fill:#FFFFFF;" /> <polygon id="b0024" points="303.043,588.415 277.231,573.513 277.231,603.318 " style="fill:#FFFFFF;" /> <polygon id="b0025" points="277.231,603.318 303.043,618.22 303.043,588.415 " style="fill:#FFFFFF;" /> <polygon id="b0027" points="277.231,573.513 303.043,588.415 303.043,558.61 " style="fill:#FFFFFF;" /> <polygon id="b0031" points="225.607,543.708 251.419,558.61 251.419,528.805 " style="fill:#FFFFFF;" /> <polygon id="b0033" points="251.419,558.61 277.231,573.513 277.231,543.708 " style="fill:#FFFFFF;" /> <polygon id="b0038" points="96.547,499 70.735,484.097 70.735,513.903 " style="fill:#FFFFFF;" /> <polygon id="b0039" points="96.547,469.195 70.735,454.292 70.735,484.097 " style="fill:#FFFFFF;" /> <polygon id="b0043" points="70.735,394.682 44.923,379.78 44.923,409.585 " style="fill:#FFFFFF;" /> <polygon id="b0049" points="122.359,484.097 96.547,469.195 96.547,499 " style="fill:#FFFFFF;" /> <polygon id="b0051" points="96.547,499 122.359,513.903 122.359,484.097 " style="fill:#FFFFFF;" /> <polygon id="b0053" points="148.171,469.195 122.359,454.292 122.359,484.097 " style="fill:#FFFFFF;" /> <polygon id="b0054" points="148.171,499 122.359,484.097 122.359,513.903 " style="fill:#FFFFFF;" /> <polygon id="b0057" points="173.983,513.903 148.171,499 148.171,528.805 " style="fill:#FFFFFF;" /> <polygon id="b0060" points="199.795,499 173.983,484.097 173.983,513.903 " style="fill:#FFFFFF;" /> <polygon id="b0062" points="225.607,513.903 199.795,499 199.795,528.805 " style="fill:#FFFFFF;" /> <polygon id="b0068" points="96.547,409.585 122.359,394.682 122.359,424.487 " style="fill:#FFFFFF;" /> <polygon id="b0069" points="96.547,379.78 122.359,364.877 122.359,394.682 " style="fill:#FFFFFF;" /> <polygon id="b0072" points="303.043,618.22 328.855,603.318 328.855,633.123 " style="fill:#FFFFFF;" /> <polygon id="b0074" points="354.667,588.415 328.855,603.318 328.855,573.513 " style="fill:#FFFFFF;" /> <polygon id="b0076" points="328.855,603.318 354.667,588.415 354.667,618.22 " style="fill:#FFFFFF;" /> <polygon id="b0077" points="328.855,573.513 303.043,558.61 303.043,588.415 " style="fill:#FFFFFF;" /> <polygon id="b0078" points="303.043,558.61 328.855,543.708 328.855,573.513 " style="fill:#FFFFFF;" /> <polygon id="b0079" points="354.667,558.61 328.855,573.513 328.855,543.708 " style="fill:#FFFFFF;" /> <polygon id="b0083" points="380.479,573.513 354.667,588.415 354.667,558.61 " style="fill:#FFFFFF;" /> <polygon id="b0085" points="354.667,528.805 380.479,513.903 380.479,543.708 " style="fill:#FFFFFF;" /> <polygon id="b0086" points="354.667,588.415 380.479,573.513 380.479,603.318 " style="fill:#FFFFFF;" /> <polygon id="b0087" points="354.667,558.61 380.479,543.708 380.479,573.513 " style="fill:#FFFFFF;" /> <polygon id="b0089" points="406.291,528.805 380.479,543.708 380.479,513.903 " style="fill:#FFFFFF;" /> <polygon id="b0091" points="380.479,573.513 406.291,558.61 406.291,588.415 " style="fill:#FFFFFF;" /> <polygon id="b0092" points="380.479,543.708 406.291,528.805 406.291,558.61 " style="fill:#FFFFFF;" /> <polygon id="b0093" points="432.103,573.513 406.291,588.415 406.291,558.61 " style="fill:#FFFFFF;" /> <polygon id="b0095" points="406.291,558.61 432.103,543.708 432.103,573.513 " style="fill:#FFFFFF;" /> <polygon id="b0098" points="457.915,558.61 432.103,573.513 432.103,543.708 " style="fill:#FFFFFF;" /> <polygon id="b0100" points="483.727,543.708 457.915,558.61 457.915,528.805 " style="fill:#FFFFFF;" /> <polygon id="b0101" points="457.915,528.805 483.727,513.903 483.727,543.708 " style="fill:#FFFFFF;" /> <polygon id="b0102" points="509.539,528.805 483.727,543.708 483.727,513.903 " style="fill:#FFFFFF;" /> <polygon id="b0103" points="483.727,513.903 509.539,499 509.539,528.805 " style="fill:#FFFFFF;" /> <polygon id="b0104" points="535.351,513.903 509.539,528.805 509.539,499 " style="fill:#FFFFFF;" /> <polygon id="b0105" points="380.479,513.903 406.291,499 406.291,528.805 " style="fill:#FFFFFF;" /> <polygon id="b0108" points="432.103,513.903 457.915,499 457.915,528.805 " style="fill:#FFFFFF;" /> <polygon id="b0110" points="457.915,499 483.727,484.097 483.727,513.903 " style="fill:#FFFFFF;" /> <polygon id="b0112" points="457.915,499 432.103,513.903 432.103,484.097 " style="fill:#FFFFFF;" /> <polygon id="b0113" points="432.103,484.097 457.915,469.195 457.915,499 " style="fill:#FFFFFF;" /> <polygon id="b0114" points="483.727,484.097 457.915,499 457.915,469.195 " style="fill:#FFFFFF;" /> <polygon id="b0115" points="457.915,469.195 483.727,454.292 483.727,484.097 " style="fill:#FFFFFF;" /> <polygon id="b0119" points="483.727,484.097 509.539,469.195 509.539,499 " style="fill:#FFFFFF;" /> <polygon id="b0120" points="535.351,484.097 509.539,469.195 509.539,499 " style="fill:#FFFFFF;" /> <polygon id="b0122" points="509.539,499 535.351,484.097 535.351,513.903 " style="fill:#FFFFFF;" /> <polygon id="b0123" points="561.163,499 535.351,513.903 535.351,484.097 " style="fill:#FFFFFF;" /> <polygon id="b0125" points="535.351,484.097 561.163,469.195 561.163,499 " style="fill:#FFFFFF;" /> <polygon id="b0129" points="509.539,439.39 535.351,424.487 535.351,454.292 " style="fill:#FFFFFF;" /> <polygon id="b0134" points="483.727,394.682 509.539,379.78 509.539,409.585 " style="fill:#FFFFFF;" /> <polygon id="b0135" points="535.351,394.682 509.539,379.78 509.539,409.585 " style="fill:#FFFFFF;" /> <polygon id="b0137" points="561.163,409.585 535.351,394.682 535.351,424.487 " style="fill:#FFFFFF;" /> <polygon id="b0139" points="535.351,394.682 561.163,379.78 561.163,409.585 " style="fill:#FFFFFF;" /> <polygon id="b0140" points="70.735,335.06 44.923,320.157 44.923,349.962 " style="fill:#FFFFFF;" /> <polygon id="b0143" points="44.923,349.974 70.735,335.072 70.735,364.877 " style="fill:#FFFFFF;" /> <polygon id="b0144" points="44.923,320.157 70.735,305.254 70.735,335.06 " style="fill:#FFFFFF;" /> <polygon id="b0147" points="96.547,379.78 70.735,364.877 70.735,394.682 " style="fill:#FFFFFF;" /> <polygon id="b0151" points="122.359,335.06 96.547,320.157 96.547,349.962 " style="fill:#FFFFFF;" /> <polygon id="b0154" points="70.735,275.449 44.923,260.547 44.923,290.352 " style="fill:#FFFFFF;" /> <polygon id="b0156" points="44.923,290.352 70.735,275.449 70.735,305.254 " style="fill:#FFFFFF;" /> <polygon id="b0158" points="70.735,305.254 96.547,290.352 96.547,320.157 " style="fill:#FFFFFF;" /> <polygon id="b0159" points="70.735,275.449 96.547,260.547 96.547,290.352 " style="fill:#FFFFFF;" /> <polygon id="b0161" points="70.735,245.644 44.923,230.742 44.923,260.547 " style="fill:#FFFFFF;" /> <polygon id="b0163" points="44.923,230.742 70.735,215.839 70.735,245.644 " style="fill:#FFFFFF;" /> <polygon id="b0164" points="96.547,230.742 70.735,215.839 70.735,245.644 " style="fill:#FFFFFF;" /> <polygon id="b0165" points="96.547,260.547 70.735,245.644 70.735,275.449 " style="fill:#FFFFFF;" /> <polygon id="b0166" points="70.735,245.644 96.547,230.742 96.547,260.547 " style="fill:#FFFFFF;" /> <polygon id="b0167" points="122.359,245.644 96.547,260.547 96.547,230.742 " style="fill:#FFFFFF;" /> <polygon id="b0168" points="122.359,275.449 96.547,260.547 96.547,290.352 " style="fill:#FFFFFF;" /> <polygon id="b0170" points="96.547,290.352 122.359,275.449 122.359,305.254 " style="fill:#FFFFFF;" /> <polygon id="b0174" points="173.983,215.839 148.171,230.742 148.171,200.937 " style="fill:#FFFFFF;" /> <polygon id="b0175" points="70.735,215.839 44.923,200.937 44.923,230.742 " style="fill:#FFFFFF;" /> <polygon id="b0176" points="44.923,200.937 70.735,186.034 70.735,215.839 " style="fill:#FFFFFF;" /> <polygon id="b0177" points="96.547,200.937 70.735,215.839 70.735,186.034 " style="fill:#FFFFFF;" /> <polygon id="b0185" points="148.171,171.131 122.359,186.034 122.359,156.229 " style="fill:#FFFFFF;" /> <polygon id="b0187" points="122.359,156.229 148.171,141.326 148.171,171.131 " style="fill:#FFFFFF;" /> <polygon id="b0188" points="173.983,186.034 148.171,200.937 148.171,171.131 " style="fill:#FFFFFF;" /> <polygon id="b0190" points="148.171,171.131 173.983,156.229 173.983,186.034 " style="fill:#FFFFFF;" /> <polygon id="b0192" points="148.171,200.937 173.983,186.034 173.983,215.839 " style="fill:#FFFFFF;" /> <polygon id="b0195" points="173.983,156.229 199.795,141.326 199.795,171.131 " style="fill:#FFFFFF;" /> <polygon id="b0196" points="173.983,186.034 199.795,171.131 199.795,200.937 " style="fill:#FFFFFF;" /> <polygon id="b0198" points="225.607,186.034 199.795,200.937 199.795,171.131 " style="fill:#FFFFFF;" /> <polygon id="b0200" points="199.795,171.131 225.607,156.229 225.607,186.034 " style="fill:#FFFFFF;" /> <polygon id="b0201" points="251.419,171.131 225.607,186.034 225.607,156.229 " style="fill:#FFFFFF;" /> <polygon id="b0202" points="225.607,156.229 251.419,141.326 251.419,171.131 " style="fill:#FFFFFF;" /> <polygon id="b0203" points="199.795,141.326 173.983,156.229 173.983,126.424 " style="fill:#FFFFFF;" /> <polygon id="b0207" points="251.419,141.326 225.607,156.229 225.607,126.424 " style="fill:#FFFFFF;" /> <polygon id="b0208" points="251.419,111.521 225.607,126.424 225.607,96.619 " style="fill:#FFFFFF;" /> <polygon id="b0209" points="225.607,126.424 251.419,111.521 251.419,141.326 " style="fill:#FFFFFF;" /> <polygon id="b0210" points="509.539,320.157 483.727,305.254 483.727,335.06 " style="fill:#FFFFFF;" /> <polygon id="b0211" points="509.539,349.974 483.727,335.072 483.727,364.877 " style="fill:#FFFFFF;" /> <polygon id="b0212" points="509.539,379.78 483.727,364.877 483.727,394.682 " style="fill:#FFFFFF;" /> <polygon id="b0215" points="535.351,335.06 509.539,320.157 509.539,349.962 " style="fill:#FFFFFF;" /> <polygon id="b0216" points="535.351,364.877 509.539,349.974 509.539,379.78 " style="fill:#FFFFFF;" /> <polygon id="b0217" points="509.539,379.78 535.351,364.877 535.351,394.682 " style="fill:#FFFFFF;" /> <polygon id="b0221" points="561.163,320.157 535.351,305.254 535.351,335.06 " style="fill:#FFFFFF;" /> <polygon id="b0222" points="535.351,364.877 561.163,349.974 561.163,379.78 " style="fill:#FFFFFF;" /> <polygon id="b0223" points="535.351,335.06 561.163,320.157 561.163,349.962 " style="fill:#FFFFFF;" /> <polygon id="b0224" points="509.539,290.352 483.727,275.449 483.727,305.254 " style="fill:#FFFFFF;" /> <polygon id="b0226" points="483.727,275.449 509.539,260.547 509.539,290.352 " style="fill:#FFFFFF;" /> <polygon id="b0227" points="535.351,275.449 509.539,260.547 509.539,290.352 " style="fill:#FFFFFF;" /> <polygon id="b0229" points="509.539,290.352 535.351,275.449 535.351,305.254 " style="fill:#FFFFFF;" /> <polygon id="b0234" points="509.539,260.547 483.727,245.644 483.727,275.449 " style="fill:#FFFFFF;" /> <polygon id="b0235" points="509.539,230.742 483.727,215.839 483.727,245.644 " style="fill:#FFFFFF;" /> <polygon id="b0236" points="483.727,245.644 509.539,260.547 509.539,230.742 " style="fill:#FFFFFF;" /> <polygon id="b0237" points="535.351,245.644 509.539,230.742 509.539,260.547 " style="fill:#FFFFFF;" /> <polygon id="b0238" points="509.539,230.742 535.351,215.839 535.351,245.644 " style="fill:#FFFFFF;" /> <polygon id="b0240" points="561.163,260.547 535.351,245.644 535.351,275.449 " style="fill:#FFFFFF;" /> <polygon id="b0244" points="535.351,245.644 561.163,230.742 561.163,260.547 " style="fill:#FFFFFF;" /> <polygon id="b0246" points="354.667,171.131 380.479,186.034 380.479,156.229 " style="fill:#FFFFFF;" /> <polygon id="b0247" points="406.291,171.131 380.479,156.229 380.479,186.034 " style="fill:#FFFFFF;" /> <polygon id="b0248" points="380.479,186.034 406.291,200.937 406.291,171.131 " style="fill:#FFFFFF;" /> <polygon id="b0250" points="432.103,156.229 406.291,141.326 406.291,171.131 " style="fill:#FFFFFF;" /> <polygon id="b0251" points="432.103,186.034 406.291,171.131 406.291,200.937 " style="fill:#FFFFFF;" /> <polygon id="b0255" points="406.291,141.326 380.479,126.424 380.479,156.229 " style="fill:#FFFFFF;" /> <polygon id="b0256" points="406.291,111.521 380.479,96.619 380.479,126.424 " style="fill:#FFFFFF;" /> <polygon id="b0257" points="380.479,126.424 406.291,141.326 406.291,111.521 " style="fill:#FFFFFF;" /> <polygon id="b0258" points="432.103,126.424 406.291,111.521 406.291,141.326 " style="fill:#FFFFFF;" /> <polygon id="b0259" points="406.291,171.131 432.103,186.034 432.103,156.229 " style="fill:#FFFFFF;" /> <polygon id="b0260" points="406.291,200.937 432.103,215.839 432.103,186.034 " style="fill:#FFFFFF;" /> <polygon id="b0261" points="406.291,141.326 432.103,156.229 432.103,126.424 " style="fill:#FFFFFF;" /> <polygon id="b0267" points="483.727,186.034 457.915,171.131 457.915,200.937 " style="fill:#FFFFFF;" /> <polygon id="b0268" points="483.727,156.229 457.915,141.326 457.915,171.131 " style="fill:#FFFFFF;" /> <polygon id="b0270" points="457.915,171.131 483.727,186.034 483.727,156.229 " style="fill:#FFFFFF;" /> <polygon id="b0274" points="483.727,186.034 509.539,200.937 509.539,171.131 " style="fill:#FFFFFF;" /> <polygon id="b0276" points="535.351,186.034 509.539,171.131 509.539,200.937 " style="fill:#FFFFFF;" /> <polygon id="b0277" points="509.539,200.937 535.351,215.839 535.351,186.034 " style="fill:#FFFFFF;" /> <polygon id="b0278" points="561.163,200.937 535.351,186.034 535.351,215.839 " style="fill:#FFFFFF;" /> </g> </svg>